<svg height="40px" xmlns="http://www.w3.org/2000/svg" viewBox="0 0 60 60" fill="white" fill-opacity="1"
	fill-rule="evenodd">
	<g transform="matrix(1, 0, 0, 1, -85.926903, -2.131161)">
		<path
			d="M 96.452 45.213 L 87.694 44.271 L 97.538 42.826 L 99.061 47.045 L 96.452 45.213 Z M 96.452 45.213">
		</path>
		<path
			d="M 104.01 41.943 L 97.999 42.791 L 99.776 47.959 L 101.51 48.365 L 106.862 44.591 L 103.823 44.197 L 104.01 41.943 Z M 104.01 41.943">
		</path>
		<path
			d="M 115.694 45.705 L 107.272 44.685 L 101.877 48.549 L 112.631 50.357 L 124.749 43.627 L 121.19 41.369 L 115.694 45.705 Z M 115.694 45.705">
		</path>
		<path
			d="M 104.526 41.986 L 104.338 43.783 L 115.475 45.185 L 117.459 38.724 L 104.526 41.986 Z M 104.526 41.986">
		</path>
		<path
			d="M 100.323 20.306 L 104.749 41.49 L 117.573 38.103 L 107.795 18.787 L 100.323 20.306 Z M 100.323 20.306">
		</path>
		<path d="M 93.506 10.728 L 100.053 19.713 L 107.561 18.299 L 93.506 10.728 Z M 93.506 10.728">
		</path>
		<path
			d="M 118.01 41.443 L 119.557 38.685 L 117.983 38.767 L 116.042 45.045 L 119.784 41.74 L 118.01 41.443 Z M 118.01 41.443">
		</path>
		<path
			d="M 123.12 17.67 L 120.112 37.959 L 118.213 38.193 L 118.081 37.369 L 113.417 28.248 L 118.245 17.939 L 123.12 17.67 Z M 123.12 17.67">
		</path>
		<path d="M 120.858 15.486 L 118.553 17.529 L 122.92 17.287 L 120.858 15.486 Z M 120.858 15.486">
		</path>
		<path
			d="M 133.573 31.486 L 125.268 43.22 L 121.741 41.06 L 133.717 26.166 L 133.573 31.486 Z M 133.573 31.486">
		</path>
		<path
			d="M 139.049 24.799 L 134.182 25.728 L 134.12 30.81 L 141.104 27.759 L 141.37 27.295 L 144.206 27.189 L 140.924 26.174 L 139.049 24.799 Z M 139.178 26.029 C 139.506 26.072 139.745 26.31 139.709 26.556 C 139.674 26.802 139.381 26.963 139.053 26.916 C 138.725 26.873 138.491 26.634 138.522 26.388 C 138.557 26.142 138.85 25.982 139.178 26.029">
		</path>
	</g>
</svg>